<?xml version="1.0" encoding="utf-8"?>
<!-- Generator: Adobe Illustrator 25.4.1, SVG Export Plug-In . SVG Version: 6.00 Build 0)  -->
<svg version="1.1" id="design" xmlns="http://www.w3.org/2000/svg" xmlns:xlink="http://www.w3.org/1999/xlink" x="0px" y="0px"
	 viewBox="0 0 680.3 225.4" style="enable-background:new 0 0 680.3 225.4;" xml:space="preserve">
<style type="text/css">
	.st0{fill:#005487;}
	.st1{fill:#A7A8A9;}
</style>
<g>
	<path class="st0" d="M140.4,22.9c2.4,0,3.4,1.2,2.8,3.5L140,41.6c-0.5,2.4-1.9,3.6-4.2,3.6l-59.2,0c-11.5,0-15.2,3.1-17.8,14.8
		l73,0c2.4,0,3.4,1.1,2.8,3.5L131.9,76c-0.4,2.4-1.9,3.5-4.2,3.5l-73.1,0c-0.7,3.5-0.9,5.9-0.9,8c0,6.2,3.4,7.8,12.3,7.8l59.2,0
		c2.3,0,3.4,1.1,2.8,3.5l-3.2,15.1c-0.5,2.3-1.9,3.5-4.3,3.5l-59.5,0c-22.4,0-32.1-6.5-32.1-22.7c0-3.8,0.4-8.1,6.4-36.2
		c5.4-25.9,18.1-35.6,45.8-35.6L140.4,22.9z"/>
	<path class="st0" d="M179.8,23c2.3,0,3.2,1.2,2.8,3.5l-11.4,52.9c-0.7,3-0.9,5.4-0.9,7.4c0,6.2,3.4,7.8,12.3,7.8l54.6,0
		c2.3,0,3.2,1.2,2.8,3.5l-3.4,15.8c-0.5,2.3-1.9,3.5-4.3,3.5l-55.5,0c-22.4,0-32.2-6.4-32.2-22.6c0-3.8,0.5-8.1,1.6-13.1l11.8-55.3
		c0.5-2.3,1.9-3.5,4.2-3.5L179.8,23z"/>
	<path class="st0" d="M286.3,23c2.3,0,3.2,1.2,2.8,3.5l-11.4,52.9c-0.7,3-0.9,5.4-0.9,7.4c0,6.2,3.4,7.8,12.3,7.8l54.6,0
		c2.3,0,3.2,1.2,2.8,3.5l-3.4,15.8c-0.5,2.3-1.9,3.5-4.3,3.5l-55.5,0c-22.4,0-32.2-6.4-32.2-22.6c0-3.8,0.5-8.1,1.6-13.1l11.8-55.3
		c0.5-2.3,1.9-3.5,4.2-3.5L286.3,23z"/>
	<path class="st0" d="M395.1,23.1c2.3,0,3.1,1.2,2.7,3.5L379.1,114c-0.5,2.3-1.9,3.5-4.2,3.5l-17.5,0c-2.3,0-3.2-1.2-2.7-3.5
		l18.5-87.4c0.5-2.3,2-3.5,4.3-3.5L395.1,23.1z"/>
	<path class="st0" d="M494.9,23.1c22.4,0,32.1,6.5,32.1,22.7c0,3.8-0.4,8.1-6.4,36.2c-5.4,25.9-18.1,35.6-45.8,35.6l-42.1,0
		c-22.4,0-32.1-6.5-32.1-22.7c0-3.8,0.4-8.1,6.4-36.2c5.4-25.9,18.1-35.6,45.8-35.6L494.9,23.1z M426.1,87.5c0,6.2,3.4,8,12.4,8
		l40.2,0c11.6,0,15.2-3.2,17.8-15.4c4.9-22.4,5.1-24.8,5.1-26.8c0-6.2-3.4-7.8-12.3-7.8l-40.3,0c-11.6,0-15.2,3.1-17.8,15.2
		C426.3,83,426.1,85.4,426.1,87.5z"/>
	<path class="st0" d="M650,23.2c2.3,0,3.2,1.2,2.8,3.5l-3.4,15.8c-0.5,2.3-1.9,3.5-4.3,3.5l-40.5,0L590,114.1
		c-0.4,2.3-1.9,3.5-4.2,3.5l-17.4,0c-2.4,0-3.4-1.2-2.8-3.5L580.1,46l-40.6,0c-2.3,0-3.2-1.2-2.7-3.5l3.4-15.8
		c0.4-2.3,1.8-3.5,4.2-3.5L650,23.2z"/>
</g>
<g>
	<path class="st1" d="M102.4,143.1c1.5,0,2.1,0.8,1.8,2.2l-2.1,10.1c-0.3,1.5-1.2,2.2-2.7,2.2H61.1c-7.4,0-9.8,2-11.4,9.7
		c-2.9,13.6-3.1,15.1-3.1,16.4c0,4,2.2,5,7.8,5h38.3c1.5,0,2.1,0.8,1.8,2.2l-2.1,10.1c-0.3,1.5-1.2,2.2-2.7,2.2H50.8
		c-14.3,0-20.5-4.1-20.5-14.4c0-2.4,0.3-5.2,4-23c3.4-16.5,11.5-22.7,29.2-22.7H102.4z"/>
	<path class="st1" d="M164,143.1c14.3,0,20.5,4.1,20.5,14.4c0,2.4-0.3,5.2-4,23c-3.4,16.5-11.5,22.7-29.2,22.7h-26.8
		c-14.3,0-20.5-4.1-20.5-14.4c0-2.4,0.3-5.2,4-23c3.4-16.5,11.5-22.7,29.2-22.7H164z M120.1,184.1c0,4,2.1,5.1,7.9,5.1h25.6
		c7.4,0,9.7-2.1,11.4-9.8c3.1-14.3,3.3-15.8,3.3-17.1c0-4-2.1-5-7.8-5h-25.7c-7.4,0-9.7,2-11.4,9.7
		C120.3,181.3,120.1,182.8,120.1,184.1z"/>
	<path class="st1" d="M216.4,143.1c7.2,0,8.1,1.4,10.2,5.9l18.4,38.8c0.2,0.4,0.3,0.6,0.9,0.6h0.7c0.4,0,0.7-0.3,0.9-0.9l8.9-42.2
		c0.3-1.5,1.2-2.2,2.8-2.2h10.7c1.5,0,2.1,0.8,1.7,2.2L261.6,193c-1.7,8.2-5.2,10.3-11.1,10.3h-8.7c-7.2,0-8.2-1.4-10.3-5.9
		l-18.4-38.8c-0.3-0.4-0.5-0.6-0.9-0.6h-0.7c-0.5,0-0.7,0.3-0.9,0.9l-8.9,42.2c-0.3,1.5-1.2,2.2-2.8,2.2h-10.7
		c-1.5,0-2.1-0.8-1.7-2.2l10.1-47.6c1.7-8.2,5-10.3,10.9-10.3H216.4z"/>
	<path class="st1" d="M349,143.1c1.5,0,2.1,0.8,1.8,2.2l-2.1,10.1c-0.3,1.5-1.2,2.2-2.8,2.2h-25.8l-9.3,43.4
		c-0.3,1.5-1.2,2.2-2.7,2.2H297c-1.5,0-2.1-0.8-1.8-2.2l9.2-43.4h-25.9c-1.5,0-2.1-0.8-1.7-2.2l2.1-10.1c0.3-1.5,1.1-2.2,2.7-2.2
		H349z"/>
	<path class="st1" d="M407.6,143.1c11,0,15.7,4,15.7,11.9c0,1.8-0.2,3.8-1.8,11.2c-2.1,9.5-6.8,15.2-15.7,17.1l10.1,17.5
		c0.4,0.8,0,2.5-1.8,2.5h-13.2c-1.6,0-2.1-0.4-2.5-1.2l-9-17.2h-24.1l-3.4,16.2c-0.3,1.5-1.2,2.2-2.7,2.2h-11.2
		c-1.5,0-2.1-0.8-1.7-2.2l11.7-55.4c0.3-1.7,1.5-2.6,3.2-2.6H407.6z M367.8,172.6h30.4c4.6,0,6.7-1.9,7.6-5.9c0.9-4.5,1-5.2,1-5.8
		c0-2.6-1.5-3.8-5.3-3.8h-29.2c-0.8,0-1.2,0.3-1.4,1.1L367.8,172.6z"/>
	<path class="st1" d="M485.5,143.1c14.3,0,20.5,4.1,20.5,14.4c0,2.4-0.3,5.2-4,23c-3.4,16.5-11.5,22.7-29.2,22.7H446
		c-14.3,0-20.5-4.1-20.5-14.4c0-2.4,0.3-5.2,4-23c3.4-16.5,11.5-22.7,29.2-22.7H485.5z M441.7,184.1c0,4,2.1,5.1,7.9,5.1h25.6
		c7.4,0,9.7-2.1,11.4-9.8c3.1-14.3,3.3-15.8,3.3-17.1c0-4-2.2-5-7.8-5h-25.7c-7.4,0-9.7,2-11.4,9.7
		C441.8,181.3,441.7,182.8,441.7,184.1z"/>
	<path class="st1" d="M533.4,143.1c1.5,0,2.1,0.8,1.8,2.2L528,179c-0.4,1.9-0.6,3.4-0.6,4.7c0,4,2.1,5,7.8,5h34.8
		c1.5,0,2.1,0.8,1.8,2.2l-2.1,10.1c-0.3,1.5-1.2,2.2-2.8,2.2h-35.3c-14.3,0-20.6-4-20.6-14.4c0-2.4,0.3-5.2,1-8.3l7.5-35.3
		c0.3-1.5,1.2-2.2,2.7-2.2H533.4z"/>
	<path class="st1" d="M649.3,143.1c1.5,0,2.1,0.8,1.7,2.2l-2,9.6c-0.3,1.5-1.3,2.3-2.8,2.3h-42.1c-2.3,0-3.7,1.3-4.1,3.6
		c-0.5,2.7-0.6,3.2-0.6,3.5c0,1.5,0.9,2.3,2.8,2.3h30.9c8.6,0,13,4,13,10.9c0,1.4-0.2,2.8-2.1,11.3c-1.9,8.6-8.2,14.4-18.9,14.4
		h-47.3c-1.5,0-2.1-0.8-1.7-2.2l2.1-9.6c0.3-1.5,1.1-2.2,2.7-2.2H625c2.3,0,3.7-1.4,4.1-3.7c0.7-3.3,0.8-3.7,0.8-4.1
		c0-1.5-0.9-2.2-2.7-2.2h-31c-8.5,0-13-4-13-10.9c0-1.4,0.2-2.8,1.9-10.7c1.9-8.7,8.3-14.4,19-14.4H649.3z"/>
</g>
</svg>
